<svg id="svg3425" xmlns="http://www.w3.org/2000/svg" viewBox="0 0 2031.96 1189.94"><defs><style>.cls-1,.cls-3,.cls-4{fill:#2c2ca0;}.cls-2{fill:#fc0;}.cls-3{stroke:#000;}.cls-4{stroke:#2c2ca0;stroke-width:60px;}</style></defs><title>Logo</title><g id="g4447"><path id="path4445" class="cls-1" d="M812.55,142.23l473.16-51.79-23.54,49.43,614.41,164.79,9.42-47.08,129.47,176.55-204.8,105.93-2.36-54.14L1069.14,335.26l-75.33,73Z" transform="translate(0 0)"/><path id="path4440" class="cls-2" d="M797.34,134.71c-8.43,18.44,188.26,305.46,229.87,307.12s67.63-93.63,67.63-93.63l702.87,140.47s-16.38,56.35-9.11,63.61,242.18-99.9,243.35-118.15-139.48-198.91-148.31-196.56S1858,289.65,1858,289.65L1284.54,133.19S1314.45,89,1306.2,80.74s-500.43,35.53-508.86,54Zm449.24-21.41c5.83,7.12-24.44,38.33-24.44,38.33l660.31,180.1s4.09-30.41,11.15-36.3,103,124.58,100.67,135.17-165.29,87.71-169.22,81,11.85-46.41,11.85-46.41L1063.27,296.42s-33,58.86-44.75,61.21S856.63,170.37,863.92,157.34,1240.76,106.18,1246.58,113.3Z" transform="translate(0 0)"/></g><g id="g6311"><path id="path6305" class="cls-3" d="M193.43,1082.81l768.08-700.9L1007,444.39,1844.67,54.11l-23.3-39.95,183.1,43.28-43.28,193.09-30-49.93L1108.94,789.85l20,153.14Z" transform="translate(0 0)"/><path id="path4430" class="cls-2" d="M1809.8,0c-1.83,0-3,.32-3.41.84-6.66,8.33,15,49.94,15,49.94L1014.05,403.67s-25-54.94-43.28-61.6S-21.28,1160.2.36,1187.67s1128.78-202.49,1155.2-233-11.65-156.48-11.65-156.48l780.67-570.93s25,46.6,34.94,44.94,59.92-204.74,56.59-214.72C2013,48.08,1837.24-.78,1809.8,0Zm36.72,28.59C1866,27.55,1992,56.46,1994.14,62.79c2.25,6.75-30.9,154-37.66,155.16s-22.31-34.32-22.31-34.32L1051.3,789.88s27.19,79,13.34,95.41S308.61,1048.1,296,1037.76s658.44-629,670.82-624.53S996,469.82,996,469.82l865.9-410.34s-22.28-24.63-17.78-30.25C1844.42,28.88,1845.22,28.67,1846.52,28.6Z" transform="translate(0 0)"/></g><path id="path4492" class="cls-2" d="M1864.29,154.59l4.62-2.67c12-6.94,16.09-21.1,1.39-42.92-12.58-18.66-25.78-26.5-45.74-17l-9.63,4.58,72.14,109.89,8-5.3-30.76-46.57M1831,104.25l2.19-1.08c8.06-4,18.82-6.78,29.64,9.36,11.13,16.61,4.17,23.95-4,28.5l-2.58,1.45L1831,104.25m-63.92,12c-22.29,10.52-24.4,47.71-2.89,82.75,22.9,37.3,58.89,53.85,80.36,39.47,20.38-13.66,19.38-50-2.43-83.44-20.53-31.47-53.83-48.79-75-38.78m68.45,108c-16,10.35-43.86-2.74-61.28-30.91-16.49-26.64-16.93-55,1.17-63.92,17.37-8.54,42.24,5.9,58.16,30.45,16.79,25.92,17.38,54.43,2,64.38m-160.5-64.54c-27.26,12.87-33.07,55.83-10.56,95.56,24,42.42,65.37,60.05,91.9,42.28,25-16.77,26.63-58.69,3.68-96.2-21.56-35.23-59.2-53.82-85-41.64m71.83,121.72c-19.78,12.76-51.66-1.21-70-33.17-17.27-30.18-15.31-62.89,6.84-73.78,21.18-10.41,49.2,5.2,65.91,32.73,17.67,29.12,16.15,62-2.8,74.22m-154.65-78.92-13.8,6.56,81.09,148.82,44.67-29.72-9.5-16.8-31.37,20.1-71.09-129m-62.91,242L1546.52,433l-63.15-127.88,159.9,72.5-85.16-158.94-14.72,7,59.68,112.78-161.24-74,87.51,180m-103.95,69.15L1509,457.94l-10.1-21.16-63.24,40.53L1403,404.62l61.74-34.92-9.52-20-61.79,33.63-22.92-50.89L1434.11,301,1425,282,1340.79,322l84.6,191.58m-111.5-44.07c25.11-18.81,32-52,20.13-79.71-7.8-18.18-23.83-31.75-42.76-33.71-18.19-1.59-36.24,6.69-53.36,14.83l-30.13,14.33,84.09,217.15L1317,585.66l-37.12-93.43,10.15-5.87,92.19,55.92,26.52-17.65-94.88-55.12m-72.36-73.89,6.5-3.21c23.64-11.69,52.88-20.93,65.62,9.34,13.22,31.43-10.25,50.46-34.67,64.11l-7.81,4.36-29.64-74.6M996.35,485.77l48.77,159.69c18.19,59.56,69.48,81.91,127.71,42.91,54-36.15,69.25-96.69,50.2-147.8l-51.49-138.1-27.16,12.92L1192,546.85c13.91,38.4,16,82-29.45,111.32-48.36,31.18-74-.88-87.52-43.32l-46-144.63-32.71,15.55" transform="translate(0 0)"/><path id="path6332" class="cls-4" d="M455,968.64c31.85-6.07,58.25-11.25,58.68-11.51,1.44-.89,2.82-6.91,16.93-74,15.94-75.72,38.31-180.06,62.6-292,38.57-177.81,48.53-224.29,50.61-236.29,1.81-10.48,2.21-16.65,2.24-35.21,0-21-.12-23-2.32-29.69-2.66-8.12-7.73-14.81-12.8-16.94-4.61-1.92-125.58-2-127.08-.12S482.29,371.55,483,373.34c.5,1.32,2.21,1.44,11.92.83,13.24-.83,16.83.31,19.24,6.07,1.36,3.25.25,9-23.14,120.68-13.51,64.5-28.79,137.51-33.95,162.26s-17.09,81.9-26.5,127S411.9,879.61,410,888.68s-6.79,32.92-11,53-7.35,37.06-7.08,37.77,1.41,1.09,2.77.78,28.33-5.5,60.18-11.57ZM749.9,912.28c113-21.61,185.36-35.89,186.18-36.73,1.29-1.32,20.47-81.94,20.47-86,0-1.78-.45-1.95-3.75-1.42C835.65,807,722.6,824.68,719.68,824.68a10.28,10.28,0,0,1-9.72-7.51c-.7-2.78,14.81-76.28,22.79-108,9.48-37.69,21.54-61.57,40.67-80.56C788.16,614,801.71,607,823.8,602.7c5.64-1.1,32.08-4.28,58.75-7.05,26.85-2.8,52-5.92,56.38-7,30.07-7.4,56.49-33.82,81-81,25.64-49.37,40.29-102.5,42.33-153.5,1.56-39.09-7.81-70.37-24.09-80.44-8.15-5-2.44-4.91-171.63-3.9-86.61.52-157.83,1.3-158.27,1.75-.86.86-20.7,90.26-20.7,93.29,0,1.31.77,1.8,2.84,1.8,1.56,0,44.42-1.57,95.25-3.5,110.6-4.2,114.11-4.25,120.81-2,5.89,2,14.34,9.12,17.08,14.48,5.36,10.5,7,27.14,4.52,44.55-6,41.34-27.42,75.85-53.07,85.45-4.59,1.71-12.5,2.59-45.74,5.05-45.55,3.37-54.16,4.27-68.07,7.09-21.42,4.35-42.52,13-57.39,23.59-39.36,28-71.15,88-93.1,175.82C605.47,738,561.51,945.8,562.1,946.76a2.24,2.24,0,0,0,1.76.9C564.52,947.65,648.23,931.73,749.9,912.28Z" transform="translate(0 0)"/><path id="path6321" class="cls-2" d="M455,968.64c31.85-6.07,58.25-11.25,58.68-11.51,1.44-.89,2.82-6.91,16.93-74,15.94-75.72,38.31-180.06,62.6-292,38.57-177.81,48.53-224.29,50.61-236.29,1.81-10.48,2.21-16.65,2.24-35.21,0-21-.12-23-2.32-29.69-2.66-8.12-7.73-14.81-12.8-16.94-4.61-1.92-125.58-2-127.08-.12S482.29,371.55,483,373.34c.5,1.32,2.21,1.44,11.92.83,13.24-.83,16.83.31,19.24,6.07,1.36,3.25.25,9-23.14,120.68-13.51,64.5-28.79,137.51-33.95,162.26s-17.09,81.9-26.5,127S411.9,879.61,410,888.68s-6.79,32.92-11,53-7.35,37.06-7.08,37.77,1.41,1.09,2.77.78,28.33-5.5,60.18-11.57ZM749.9,912.28c113-21.61,185.36-35.89,186.18-36.73,1.29-1.32,20.47-81.94,20.47-86,0-1.78-.45-1.95-3.75-1.42C835.65,807,722.6,824.68,719.68,824.68a10.28,10.28,0,0,1-9.72-7.51c-.7-2.78,14.81-76.28,22.79-108,9.48-37.69,21.54-61.57,40.67-80.56C788.16,614,801.71,607,823.8,602.7c5.64-1.1,32.08-4.28,58.75-7.05,26.85-2.8,52-5.92,56.38-7,30.07-7.4,56.49-33.82,81-81,25.64-49.37,40.29-102.5,42.33-153.5,1.56-39.09-7.81-70.37-24.09-80.44-8.15-5-2.44-4.91-171.63-3.9-86.61.52-157.83,1.3-158.27,1.75-.86.86-20.7,90.26-20.7,93.29,0,1.31.77,1.8,2.84,1.8,1.56,0,44.42-1.57,95.25-3.5,110.6-4.2,114.11-4.25,120.81-2,5.89,2,14.34,9.12,17.08,14.48,5.36,10.5,7,27.14,4.52,44.55-6,41.34-27.42,75.85-53.07,85.45-4.59,1.71-12.5,2.59-45.74,5.05-45.55,3.37-54.16,4.27-68.07,7.09-21.42,4.35-42.52,13-57.39,23.59-39.36,28-71.15,88-93.1,175.82C605.47,738,561.51,945.8,562.1,946.76a2.24,2.24,0,0,0,1.76.9C564.52,947.65,648.23,931.73,749.9,912.28Z" transform="translate(0 0)"/></svg>